<svg xmlns="http://www.w3.org/2000/svg" viewBox="0 0 900 180" width="900" height="180">
  <defs>
    <linearGradient id="bg" x1="0%" y1="0%" x2="0%" y2="100%">
      <stop offset="0%" style="stop-color:#161b22"/>
      <stop offset="100%" style="stop-color:#0d1117"/>
    </linearGradient>
    <style>
      .wave1 { fill:none; stroke:#9e8e7e; stroke-width:1.6; opacity:0.65; }
      .wave2 { fill:none; stroke:#7a5238; stroke-width:1.3; opacity:0.55; }
      .title { font-family: Georgia, 'Times New Roman', serif; font-size:46px; font-weight:bold;
                fill:#e8b84b; text-anchor:middle; dominant-baseline:middle; letter-spacing:2px; }
    </style>
  </defs>
  <rect width="900" height="180" fill="url(#bg)"/>
  <path class="wave1" d="M 0.0 75.0 Q 5.0 79.4 7.5 81.5 Q 10.0 83.6 12.5 85.6 Q 15.0 87.7 17.5 89.6 Q 20.0 91.5 22.5 93.4 Q 25.0 95.2 27.5 96.9 Q 30.0 98.6 32.5 100.2 Q 35.0 101.7 37.5 103.2 Q 40.0 104.6 42.5 105.9 Q 45.0 107.2 47.5 108.4 Q 50.0 109.6 52.5 110.6 Q 55.0 111.6 57.5 112.5 Q 60.0 113.4 62.5 114.1 Q 65.0 114.8 67.5 115.4 Q 70.0 116.0 72.5 116.4 Q 75.0 116.8 77.5 117.1 Q 80.0 117.4 82.5 117.5 Q 85.0 117.6 87.5 117.6 Q 90.0 117.6 92.5 117.5 Q 95.0 117.3 97.5 117.1 Q 100.0 116.8 102.5 116.4 Q 105.0 116.0 107.5 115.5 Q 110.0 115.0 112.5 114.4 Q 115.0 113.8 117.5 113.0 Q 120.0 112.3 122.5 111.5 Q 125.0 110.7 127.5 109.8 Q 130.0 108.9 132.5 107.9 Q 135.0 107.0 137.5 105.9 Q 140.0 104.9 142.5 103.8 Q 145.0 102.7 147.5 101.6 Q 150.0 100.4 152.5 99.3 Q 155.0 98.1 157.5 96.9 Q 160.0 95.7 162.5 94.5 Q 165.0 93.3 167.5 92.1 Q 170.0 90.8 172.5 89.6 Q 175.0 88.4 177.5 87.2 Q 180.0 86.0 182.5 84.8 Q 185.0 83.6 187.5 82.5 Q 190.0 81.3 192.5 80.2 Q 195.0 79.0 197.5 78.0 Q 200.0 76.9 202.5 75.9 Q 205.0 74.8 207.5 73.8 Q 210.0 72.9 212.5 71.9 Q 215.0 71.0 217.5 70.2 Q 220.0 69.3 222.5 68.5 Q 225.0 67.7 227.5 67.0 Q 230.0 66.3 232.5 65.6 Q 235.0 65.0 237.5 64.4 Q 240.0 63.8 242.5 63.3 Q 245.0 62.9 247.5 62.4 Q 250.0 62.0 252.5 61.7 Q 255.0 61.3 257.5 61.0 Q 260.0 60.8 262.5 60.6 Q 265.0 60.4 267.5 60.2 Q 270.0 60.1 272.5 60.1 Q 275.0 60.0 277.5 60.0 Q 280.0 60.0 282.5 60.1 Q 285.0 60.1 287.5 60.3 Q 290.0 60.4 292.5 60.6 Q 295.0 60.7 297.5 60.9 Q 300.0 61.2 302.5 61.4 Q 305.0 61.7 307.5 62.0 Q 310.0 62.3 312.5 62.6 Q 315.0 63.0 317.5 63.3 Q 320.0 63.7 322.5 64.1 Q 325.0 64.5 327.5 64.9 Q 330.0 65.2 332.5 65.7 Q 335.0 66.1 337.5 66.5 Q 340.0 66.9 342.5 67.3 Q 345.0 67.7 347.5 68.1 Q 350.0 68.5 352.5 68.9 Q 355.0 69.3 357.5 69.7 Q 360.0 70.1 362.5 70.5 Q 365.0 70.8 367.5 71.2 Q 370.0 71.5 372.5 71.9 Q 375.0 72.2 377.5 72.5 Q 380.0 72.8 382.5 73.0 Q 385.0 73.3 387.5 73.5 Q 390.0 73.8 392.5 74.0 Q 395.0 74.2 397.5 74.4 Q 400.0 74.5 402.5 74.7 Q 405.0 74.8 407.5 74.9 Q 410.0 75.0 412.5 75.1 Q 415.0 75.2 417.5 75.2 Q 420.0 75.3 422.5 75.3 Q 425.0 75.3 427.5 75.3 Q 430.0 75.3 432.5 75.3 Q 435.0 75.3 437.5 75.2 Q 440.0 75.2 442.5 75.1 Q 445.0 75.1 447.5 75.0 Q 450.0 75.0 452.5 75.1 Q 455.0 75.1 457.5 75.2 Q 460.0 75.3 462.5 75.4 Q 465.0 75.5 467.5 75.7 Q 470.0 75.8 472.5 76.0 Q 475.0 76.1 477.5 76.3 Q 480.0 76.5 482.5 76.7 Q 485.0 76.9 487.5 77.1 Q 490.0 77.4 492.5 77.6 Q 495.0 77.8 497.5 78.0 Q 500.0 78.3 502.5 78.5 Q 505.0 78.8 507.5 79.0 Q 510.0 79.2 512.5 79.5 Q 515.0 79.7 517.5 79.9 Q 520.0 80.1 522.5 80.3 Q 525.0 80.5 527.5 80.7 Q 530.0 80.9 532.5 81.1 Q 535.0 81.2 537.5 81.3 Q 540.0 81.5 542.5 81.6 Q 545.0 81.7 547.5 81.7 Q 550.0 81.8 552.5 81.8 Q 555.0 81.9 557.5 81.8 Q 560.0 81.8 562.5 81.8 Q 565.0 81.7 567.5 81.6 Q 570.0 81.5 572.5 81.3 Q 575.0 81.1 577.5 80.9 Q 580.0 80.7 582.5 80.4 Q 585.0 80.2 587.5 79.8 Q 590.0 79.5 592.5 79.1 Q 595.0 78.8 597.5 78.3 Q 600.0 77.9 602.5 77.4 Q 605.0 76.9 607.5 76.4 Q 610.0 75.8 612.5 75.3 Q 615.0 74.7 617.5 74.0 Q 620.0 73.4 622.5 72.7 Q 625.0 72.0 627.5 71.3 Q 630.0 70.6 632.5 69.9 Q 635.0 69.1 637.5 68.3 Q 640.0 67.6 642.5 66.7 Q 645.0 65.9 647.5 65.1 Q 650.0 64.3 652.5 63.5 Q 655.0 62.6 657.5 61.8 Q 660.0 60.9 662.5 60.1 Q 665.0 59.2 667.5 58.4 Q 670.0 57.6 672.5 56.8 Q 675.0 55.9 677.5 55.1 Q 680.0 54.4 682.5 53.6 Q 685.0 52.8 687.5 52.1 Q 690.0 51.4 692.5 50.7 Q 695.0 50.0 697.5 49.4 Q 700.0 48.8 702.5 48.2 Q 705.0 47.7 707.5 47.2 Q 710.0 46.7 712.5 46.3 Q 715.0 45.9 717.5 45.5 Q 720.0 45.2 722.5 45.0 Q 725.0 44.7 727.5 44.6 Q 730.0 44.4 732.5 44.4 Q 735.0 44.3 737.5 44.4 Q 740.0 44.5 742.5 44.6 Q 745.0 44.8 747.5 45.1 Q 750.0 45.3 752.5 45.7 Q 755.0 46.1 757.5 46.6 Q 760.0 47.2 762.5 47.8 Q 765.0 48.4 767.5 49.1 Q 770.0 49.9 772.5 50.8 Q 775.0 51.6 777.5 52.6 Q 780.0 53.6 782.5 54.6 Q 785.0 55.7 787.5 56.9 Q 790.0 58.1 792.5 59.4 Q 795.0 60.7 797.5 62.1 Q 800.0 63.5 802.5 65.0 Q 805.0 66.4 807.5 68.0 Q 810.0 69.6 812.5 71.2 Q 815.0 72.8 817.5 74.5 Q 820.0 76.3 822.5 78.0 Q 825.0 79.8 827.5 81.6 Q 830.0 83.4 832.5 85.3 Q 835.0 87.1 837.5 89.0 Q 840.0 90.8 842.5 92.7 Q 845.0 94.6 847.5 96.5 Q 850.0 98.4 852.5 100.2 Q 855.0 102.1 857.5 103.9 Q 860.0 105.8 862.5 107.6 Q 865.0 109.4 867.5 111.1 Q 870.0 112.9 872.5 114.6 Q 875.0 116.2 877.5 117.9 Q 880.0 119.5 882.5 121.0 Q 885.0 122.5 887.5 123.9 Q 890.0 125.3 892.5 126.6 Q 895.0 127.9 897.5 129.0 L 900.0 130.2">
    <animate attributeName="d" dur="4s" repeatCount="indefinite"
      values="M 0.0 75.0 Q 5.0 79.4 7.5 81.5 Q 10.0 83.6 12.5 85.6 Q 15.0 87.7 17.5 89.6 Q 20.0 91.5 22.5 93.4 Q 25.0 95.2 27.5 96.9 Q 30.0 98.6 32.5 100.2 Q 35.0 101.7 37.5 103.2 Q 40.0 104.6 42.5 105.9 Q 45.0 107.2 47.5 108.4 Q 50.0 109.6 52.5 110.6 Q 55.0 111.6 57.5 112.5 Q 60.0 113.4 62.5 114.1 Q 65.0 114.8 67.5 115.4 Q 70.0 116.0 72.5 116.4 Q 75.0 116.8 77.5 117.1 Q 80.0 117.4 82.5 117.5 Q 85.0 117.6 87.5 117.6 Q 90.0 117.6 92.5 117.5 Q 95.0 117.3 97.5 117.1 Q 100.0 116.8 102.5 116.4 Q 105.0 116.0 107.5 115.5 Q 110.0 115.0 112.5 114.4 Q 115.0 113.8 117.5 113.0 Q 120.0 112.3 122.5 111.5 Q 125.0 110.7 127.5 109.8 Q 130.0 108.9 132.5 107.9 Q 135.0 107.0 137.5 105.9 Q 140.0 104.9 142.5 103.8 Q 145.0 102.7 147.5 101.6 Q 150.0 100.4 152.5 99.3 Q 155.0 98.1 157.5 96.9 Q 160.0 95.7 162.5 94.5 Q 165.0 93.3 167.5 92.1 Q 170.0 90.8 172.5 89.6 Q 175.0 88.4 177.5 87.2 Q 180.0 86.0 182.5 84.8 Q 185.0 83.6 187.5 82.5 Q 190.0 81.3 192.5 80.2 Q 195.0 79.0 197.5 78.0 Q 200.0 76.9 202.5 75.9 Q 205.0 74.8 207.5 73.8 Q 210.0 72.9 212.5 71.9 Q 215.0 71.0 217.5 70.2 Q 220.0 69.3 222.5 68.5 Q 225.0 67.7 227.5 67.0 Q 230.0 66.3 232.5 65.6 Q 235.0 65.0 237.5 64.4 Q 240.0 63.8 242.5 63.3 Q 245.0 62.9 247.5 62.4 Q 250.0 62.0 252.5 61.7 Q 255.0 61.3 257.5 61.0 Q 260.0 60.8 262.5 60.6 Q 265.0 60.4 267.5 60.2 Q 270.0 60.1 272.5 60.1 Q 275.0 60.0 277.5 60.0 Q 280.0 60.0 282.5 60.1 Q 285.0 60.1 287.5 60.3 Q 290.0 60.4 292.5 60.6 Q 295.0 60.7 297.5 60.9 Q 300.0 61.2 302.5 61.4 Q 305.0 61.7 307.5 62.0 Q 310.0 62.3 312.5 62.6 Q 315.0 63.0 317.5 63.3 Q 320.0 63.7 322.5 64.1 Q 325.0 64.5 327.5 64.9 Q 330.0 65.2 332.5 65.7 Q 335.0 66.1 337.5 66.5 Q 340.0 66.9 342.5 67.3 Q 345.0 67.7 347.5 68.1 Q 350.0 68.5 352.5 68.9 Q 355.0 69.3 357.5 69.7 Q 360.0 70.1 362.5 70.5 Q 365.0 70.8 367.5 71.2 Q 370.0 71.5 372.5 71.9 Q 375.0 72.2 377.5 72.5 Q 380.0 72.8 382.5 73.0 Q 385.0 73.3 387.5 73.5 Q 390.0 73.8 392.5 74.0 Q 395.0 74.2 397.5 74.4 Q 400.0 74.5 402.5 74.7 Q 405.0 74.8 407.5 74.9 Q 410.0 75.0 412.5 75.1 Q 415.0 75.2 417.5 75.2 Q 420.0 75.3 422.5 75.3 Q 425.0 75.3 427.5 75.3 Q 430.0 75.3 432.5 75.3 Q 435.0 75.3 437.5 75.2 Q 440.0 75.2 442.5 75.1 Q 445.0 75.1 447.5 75.0 Q 450.0 75.0 452.5 75.1 Q 455.0 75.1 457.5 75.2 Q 460.0 75.3 462.5 75.4 Q 465.0 75.5 467.5 75.7 Q 470.0 75.8 472.5 76.0 Q 475.0 76.1 477.5 76.3 Q 480.0 76.5 482.5 76.7 Q 485.0 76.9 487.5 77.1 Q 490.0 77.4 492.5 77.6 Q 495.0 77.8 497.5 78.0 Q 500.0 78.3 502.5 78.5 Q 505.0 78.8 507.5 79.0 Q 510.0 79.2 512.5 79.5 Q 515.0 79.7 517.5 79.9 Q 520.0 80.1 522.5 80.3 Q 525.0 80.5 527.5 80.7 Q 530.0 80.9 532.5 81.1 Q 535.0 81.2 537.5 81.3 Q 540.0 81.5 542.5 81.6 Q 545.0 81.7 547.5 81.7 Q 550.0 81.8 552.5 81.8 Q 555.0 81.9 557.5 81.8 Q 560.0 81.8 562.5 81.8 Q 565.0 81.7 567.5 81.6 Q 570.0 81.5 572.5 81.3 Q 575.0 81.1 577.5 80.9 Q 580.0 80.7 582.5 80.4 Q 585.0 80.2 587.5 79.8 Q 590.0 79.5 592.5 79.1 Q 595.0 78.8 597.5 78.3 Q 600.0 77.9 602.5 77.4 Q 605.0 76.9 607.5 76.4 Q 610.0 75.8 612.5 75.3 Q 615.0 74.7 617.5 74.0 Q 620.0 73.4 622.5 72.7 Q 625.0 72.0 627.5 71.3 Q 630.0 70.6 632.5 69.9 Q 635.0 69.1 637.5 68.3 Q 640.0 67.6 642.5 66.7 Q 645.0 65.9 647.5 65.1 Q 650.0 64.3 652.5 63.5 Q 655.0 62.6 657.5 61.8 Q 660.0 60.9 662.5 60.1 Q 665.0 59.2 667.5 58.4 Q 670.0 57.6 672.5 56.8 Q 675.0 55.9 677.5 55.1 Q 680.0 54.4 682.5 53.6 Q 685.0 52.8 687.5 52.1 Q 690.0 51.4 692.5 50.7 Q 695.0 50.0 697.5 49.4 Q 700.0 48.8 702.5 48.2 Q 705.0 47.7 707.5 47.2 Q 710.0 46.7 712.5 46.3 Q 715.0 45.9 717.5 45.5 Q 720.0 45.2 722.5 45.0 Q 725.0 44.7 727.5 44.6 Q 730.0 44.4 732.5 44.4 Q 735.0 44.3 737.5 44.4 Q 740.0 44.5 742.5 44.6 Q 745.0 44.8 747.5 45.1 Q 750.0 45.3 752.5 45.7 Q 755.0 46.1 757.5 46.6 Q 760.0 47.2 762.5 47.8 Q 765.0 48.4 767.5 49.1 Q 770.0 49.9 772.5 50.8 Q 775.0 51.6 777.5 52.6 Q 780.0 53.6 782.5 54.6 Q 785.0 55.7 787.5 56.9 Q 790.0 58.1 792.5 59.4 Q 795.0 60.7 797.5 62.1 Q 800.0 63.5 802.5 65.0 Q 805.0 66.4 807.5 68.0 Q 810.0 69.6 812.5 71.2 Q 815.0 72.8 817.5 74.5 Q 820.0 76.3 822.5 78.0 Q 825.0 79.8 827.5 81.6 Q 830.0 83.4 832.5 85.3 Q 835.0 87.1 837.5 89.0 Q 840.0 90.8 842.5 92.7 Q 845.0 94.6 847.5 96.5 Q 850.0 98.4 852.5 100.2 Q 855.0 102.1 857.5 103.9 Q 860.0 105.8 862.5 107.6 Q 865.0 109.4 867.5 111.1 Q 870.0 112.9 872.5 114.6 Q 875.0 116.2 877.5 117.9 Q 880.0 119.5 882.5 121.0 Q 885.0 122.5 887.5 123.9 Q 890.0 125.3 892.5 126.6 Q 895.0 127.9 897.5 129.0 L 900.0 130.2;M 0.0 75.0 Q 5.0 70.6 7.5 68.5 Q 10.0 66.4 12.5 64.4 Q 15.0 62.3 17.5 60.4 Q 20.0 58.5 22.5 56.6 Q 25.0 54.8 27.5 53.1 Q 30.0 51.4 32.5 49.8 Q 35.0 48.3 37.5 46.8 Q 40.0 45.4 42.5 44.1 Q 45.0 42.8 47.5 41.6 Q 50.0 40.4 52.5 39.4 Q 55.0 38.4 57.5 37.5 Q 60.0 36.6 62.5 35.9 Q 65.0 35.2 67.5 34.6 Q 70.0 34.0 72.5 33.6 Q 75.0 33.2 77.5 32.9 Q 80.0 32.6 82.5 32.5 Q 85.0 32.4 87.5 32.4 Q 90.0 32.4 92.5 32.5 Q 95.0 32.7 97.5 32.9 Q 100.0 33.2 102.5 33.6 Q 105.0 34.0 107.5 34.5 Q 110.0 35.0 112.5 35.6 Q 115.0 36.2 117.5 37.0 Q 120.0 37.7 122.5 38.5 Q 125.0 39.3 127.5 40.2 Q 130.0 41.1 132.5 42.1 Q 135.0 43.0 137.5 44.1 Q 140.0 45.1 142.5 46.2 Q 145.0 47.3 147.5 48.4 Q 150.0 49.6 152.5 50.7 Q 155.0 51.9 157.5 53.1 Q 160.0 54.3 162.5 55.5 Q 165.0 56.7 167.5 57.9 Q 170.0 59.2 172.5 60.4 Q 175.0 61.6 177.5 62.8 Q 180.0 64.0 182.5 65.2 Q 185.0 66.4 187.5 67.5 Q 190.0 68.7 192.5 69.8 Q 195.0 71.0 197.5 72.0 Q 200.0 73.1 202.5 74.1 Q 205.0 75.2 207.5 76.2 Q 210.0 77.1 212.5 78.1 Q 215.0 79.0 217.5 79.8 Q 220.0 80.7 222.5 81.5 Q 225.0 82.3 227.5 83.0 Q 230.0 83.7 232.5 84.4 Q 235.0 85.0 237.5 85.6 Q 240.0 86.2 242.5 86.7 Q 245.0 87.1 247.5 87.6 Q 250.0 88.0 252.5 88.3 Q 255.0 88.7 257.5 89.0 Q 260.0 89.2 262.5 89.4 Q 265.0 89.6 267.5 89.8 Q 270.0 89.9 272.5 89.9 Q 275.0 90.0 277.5 90.0 Q 280.0 90.0 282.5 89.9 Q 285.0 89.9 287.5 89.7 Q 290.0 89.6 292.5 89.4 Q 295.0 89.3 297.5 89.1 Q 300.0 88.8 302.5 88.6 Q 305.0 88.3 307.5 88.0 Q 310.0 87.7 312.5 87.4 Q 315.0 87.0 317.5 86.7 Q 320.0 86.3 322.5 85.9 Q 325.0 85.5 327.5 85.1 Q 330.0 84.8 332.5 84.3 Q 335.0 83.9 337.5 83.5 Q 340.0 83.1 342.5 82.7 Q 345.0 82.3 347.5 81.9 Q 350.0 81.5 352.5 81.1 Q 355.0 80.7 357.5 80.3 Q 360.0 79.9 362.5 79.5 Q 365.0 79.2 367.5 78.8 Q 370.0 78.5 372.5 78.1 Q 375.0 77.8 377.5 77.5 Q 380.0 77.2 382.5 77.0 Q 385.0 76.7 387.5 76.5 Q 390.0 76.2 392.5 76.0 Q 395.0 75.8 397.5 75.6 Q 400.0 75.5 402.5 75.3 Q 405.0 75.2 407.5 75.1 Q 410.0 75.0 412.5 74.9 Q 415.0 74.8 417.5 74.8 Q 420.0 74.7 422.5 74.7 Q 425.0 74.7 427.5 74.7 Q 430.0 74.7 432.5 74.7 Q 435.0 74.7 437.5 74.8 Q 440.0 74.8 442.5 74.9 Q 445.0 74.9 447.5 75.0 Q 450.0 75.0 452.5 74.9 Q 455.0 74.9 457.5 74.8 Q 460.0 74.7 462.5 74.6 Q 465.0 74.5 467.5 74.3 Q 470.0 74.2 472.5 74.0 Q 475.0 73.9 477.5 73.7 Q 480.0 73.5 482.5 73.3 Q 485.0 73.1 487.5 72.9 Q 490.0 72.6 492.5 72.4 Q 495.0 72.2 497.5 72.0 Q 500.0 71.7 502.5 71.5 Q 505.0 71.2 507.5 71.0 Q 510.0 70.8 512.5 70.5 Q 515.0 70.3 517.5 70.1 Q 520.0 69.9 522.5 69.7 Q 525.0 69.5 527.5 69.3 Q 530.0 69.1 532.5 68.9 Q 535.0 68.8 537.5 68.7 Q 540.0 68.5 542.5 68.4 Q 545.0 68.3 547.5 68.3 Q 550.0 68.2 552.5 68.2 Q 555.0 68.1 557.5 68.2 Q 560.0 68.2 562.5 68.2 Q 565.0 68.3 567.5 68.4 Q 570.0 68.5 572.5 68.7 Q 575.0 68.9 577.5 69.1 Q 580.0 69.3 582.5 69.6 Q 585.0 69.8 587.5 70.2 Q 590.0 70.5 592.5 70.9 Q 595.0 71.2 597.5 71.7 Q 600.0 72.1 602.5 72.6 Q 605.0 73.1 607.5 73.6 Q 610.0 74.2 612.5 74.7 Q 615.0 75.3 617.5 76.0 Q 620.0 76.6 622.5 77.3 Q 625.0 78.0 627.5 78.7 Q 630.0 79.4 632.5 80.1 Q 635.0 80.9 637.5 81.7 Q 640.0 82.4 642.5 83.3 Q 645.0 84.1 647.5 84.9 Q 650.0 85.7 652.5 86.5 Q 655.0 87.4 657.5 88.2 Q 660.0 89.1 662.5 89.9 Q 665.0 90.8 667.5 91.6 Q 670.0 92.4 672.5 93.2 Q 675.0 94.1 677.5 94.9 Q 680.0 95.6 682.5 96.4 Q 685.0 97.2 687.5 97.9 Q 690.0 98.6 692.5 99.3 Q 695.0 100.0 697.5 100.6 Q 700.0 101.2 702.5 101.8 Q 705.0 102.3 707.5 102.8 Q 710.0 103.3 712.5 103.7 Q 715.0 104.1 717.5 104.5 Q 720.0 104.8 722.5 105.0 Q 725.0 105.3 727.5 105.4 Q 730.0 105.6 732.5 105.6 Q 735.0 105.7 737.5 105.6 Q 740.0 105.5 742.5 105.4 Q 745.0 105.2 747.5 104.9 Q 750.0 104.7 752.5 104.3 Q 755.0 103.9 757.5 103.4 Q 760.0 102.8 762.5 102.2 Q 765.0 101.6 767.5 100.9 Q 770.0 100.1 772.5 99.2 Q 775.0 98.4 777.5 97.4 Q 780.0 96.4 782.5 95.4 Q 785.0 94.3 787.5 93.1 Q 790.0 91.9 792.5 90.6 Q 795.0 89.3 797.5 87.9 Q 800.0 86.5 802.5 85.0 Q 805.0 83.6 807.5 82.0 Q 810.0 80.4 812.5 78.8 Q 815.0 77.2 817.5 75.5 Q 820.0 73.7 822.5 72.0 Q 825.0 70.2 827.5 68.4 Q 830.0 66.6 832.5 64.7 Q 835.0 62.9 837.5 61.0 Q 840.0 59.2 842.5 57.3 Q 845.0 55.4 847.5 53.5 Q 850.0 51.6 852.5 49.8 Q 855.0 47.9 857.5 46.1 Q 860.0 44.2 862.5 42.4 Q 865.0 40.6 867.5 38.9 Q 870.0 37.1 872.5 35.4 Q 875.0 33.8 877.5 32.1 Q 880.0 30.5 882.5 29.0 Q 885.0 27.5 887.5 26.1 Q 890.0 24.7 892.5 23.4 Q 895.0 22.1 897.5 21.0 L 900.0 19.8;M 0.0 75.0 Q 5.0 79.4 7.5 81.5 Q 10.0 83.6 12.5 85.6 Q 15.0 87.7 17.5 89.6 Q 20.0 91.5 22.5 93.4 Q 25.0 95.2 27.5 96.9 Q 30.0 98.6 32.5 100.2 Q 35.0 101.7 37.5 103.2 Q 40.0 104.6 42.5 105.9 Q 45.0 107.2 47.5 108.4 Q 50.0 109.6 52.5 110.6 Q 55.0 111.6 57.5 112.5 Q 60.0 113.4 62.5 114.1 Q 65.0 114.8 67.5 115.4 Q 70.0 116.0 72.5 116.4 Q 75.0 116.8 77.5 117.1 Q 80.0 117.4 82.5 117.5 Q 85.0 117.6 87.5 117.6 Q 90.0 117.6 92.5 117.5 Q 95.0 117.3 97.5 117.1 Q 100.0 116.8 102.5 116.4 Q 105.0 116.0 107.5 115.5 Q 110.0 115.0 112.5 114.4 Q 115.0 113.8 117.5 113.0 Q 120.0 112.3 122.5 111.5 Q 125.0 110.7 127.5 109.8 Q 130.0 108.9 132.5 107.9 Q 135.0 107.0 137.5 105.9 Q 140.0 104.9 142.5 103.8 Q 145.0 102.7 147.5 101.6 Q 150.0 100.4 152.5 99.3 Q 155.0 98.1 157.5 96.9 Q 160.0 95.7 162.5 94.5 Q 165.0 93.3 167.5 92.1 Q 170.0 90.8 172.5 89.6 Q 175.0 88.4 177.5 87.2 Q 180.0 86.0 182.5 84.8 Q 185.0 83.6 187.5 82.5 Q 190.0 81.3 192.5 80.2 Q 195.0 79.0 197.5 78.0 Q 200.0 76.9 202.5 75.9 Q 205.0 74.8 207.5 73.8 Q 210.0 72.9 212.5 71.9 Q 215.0 71.0 217.5 70.2 Q 220.0 69.3 222.5 68.5 Q 225.0 67.7 227.5 67.0 Q 230.0 66.3 232.5 65.6 Q 235.0 65.0 237.5 64.4 Q 240.0 63.8 242.5 63.3 Q 245.0 62.9 247.5 62.4 Q 250.0 62.0 252.5 61.7 Q 255.0 61.3 257.5 61.0 Q 260.0 60.8 262.5 60.6 Q 265.0 60.4 267.5 60.2 Q 270.0 60.1 272.5 60.1 Q 275.0 60.0 277.5 60.0 Q 280.0 60.0 282.5 60.1 Q 285.0 60.1 287.5 60.3 Q 290.0 60.4 292.5 60.6 Q 295.0 60.7 297.5 60.9 Q 300.0 61.2 302.5 61.4 Q 305.0 61.7 307.5 62.0 Q 310.0 62.3 312.5 62.6 Q 315.0 63.0 317.5 63.3 Q 320.0 63.7 322.5 64.1 Q 325.0 64.5 327.5 64.9 Q 330.0 65.2 332.5 65.7 Q 335.0 66.1 337.5 66.5 Q 340.0 66.9 342.5 67.3 Q 345.0 67.7 347.5 68.1 Q 350.0 68.5 352.5 68.9 Q 355.0 69.3 357.5 69.7 Q 360.0 70.1 362.5 70.5 Q 365.0 70.8 367.5 71.2 Q 370.0 71.5 372.5 71.9 Q 375.0 72.2 377.5 72.5 Q 380.0 72.8 382.5 73.0 Q 385.0 73.3 387.5 73.5 Q 390.0 73.8 392.5 74.0 Q 395.0 74.2 397.5 74.4 Q 400.0 74.5 402.5 74.7 Q 405.0 74.8 407.5 74.9 Q 410.0 75.0 412.5 75.1 Q 415.0 75.2 417.5 75.2 Q 420.0 75.3 422.5 75.3 Q 425.0 75.3 427.5 75.3 Q 430.0 75.3 432.5 75.3 Q 435.0 75.3 437.5 75.2 Q 440.0 75.2 442.5 75.1 Q 445.0 75.1 447.5 75.0 Q 450.0 75.0 452.5 75.1 Q 455.0 75.1 457.5 75.2 Q 460.0 75.3 462.5 75.4 Q 465.0 75.5 467.5 75.7 Q 470.0 75.8 472.5 76.0 Q 475.0 76.1 477.5 76.3 Q 480.0 76.5 482.5 76.7 Q 485.0 76.9 487.5 77.1 Q 490.0 77.4 492.5 77.6 Q 495.0 77.8 497.5 78.0 Q 500.0 78.3 502.5 78.5 Q 505.0 78.8 507.5 79.0 Q 510.0 79.2 512.5 79.5 Q 515.0 79.7 517.5 79.9 Q 520.0 80.1 522.5 80.3 Q 525.0 80.5 527.5 80.7 Q 530.0 80.9 532.5 81.1 Q 535.0 81.2 537.5 81.3 Q 540.0 81.5 542.5 81.6 Q 545.0 81.7 547.5 81.7 Q 550.0 81.8 552.5 81.8 Q 555.0 81.9 557.5 81.8 Q 560.0 81.8 562.5 81.8 Q 565.0 81.7 567.5 81.6 Q 570.0 81.5 572.5 81.3 Q 575.0 81.1 577.5 80.9 Q 580.0 80.7 582.5 80.4 Q 585.0 80.2 587.5 79.8 Q 590.0 79.5 592.5 79.1 Q 595.0 78.8 597.5 78.3 Q 600.0 77.9 602.5 77.4 Q 605.0 76.9 607.5 76.4 Q 610.0 75.8 612.5 75.3 Q 615.0 74.7 617.5 74.0 Q 620.0 73.4 622.5 72.7 Q 625.0 72.0 627.5 71.3 Q 630.0 70.6 632.5 69.9 Q 635.0 69.1 637.5 68.3 Q 640.0 67.6 642.5 66.7 Q 645.0 65.9 647.5 65.1 Q 650.0 64.3 652.5 63.5 Q 655.0 62.6 657.5 61.8 Q 660.0 60.9 662.5 60.1 Q 665.0 59.2 667.5 58.4 Q 670.0 57.6 672.5 56.8 Q 675.0 55.9 677.5 55.1 Q 680.0 54.4 682.5 53.6 Q 685.0 52.8 687.5 52.1 Q 690.0 51.4 692.5 50.7 Q 695.0 50.0 697.5 49.4 Q 700.0 48.8 702.5 48.2 Q 705.0 47.7 707.5 47.2 Q 710.0 46.7 712.5 46.3 Q 715.0 45.9 717.5 45.5 Q 720.0 45.2 722.5 45.0 Q 725.0 44.7 727.5 44.6 Q 730.0 44.4 732.5 44.4 Q 735.0 44.3 737.5 44.4 Q 740.0 44.5 742.5 44.6 Q 745.0 44.8 747.5 45.1 Q 750.0 45.3 752.5 45.7 Q 755.0 46.1 757.5 46.6 Q 760.0 47.2 762.5 47.8 Q 765.0 48.4 767.5 49.1 Q 770.0 49.9 772.5 50.8 Q 775.0 51.6 777.5 52.6 Q 780.0 53.6 782.5 54.6 Q 785.0 55.7 787.5 56.9 Q 790.0 58.1 792.5 59.4 Q 795.0 60.7 797.5 62.1 Q 800.0 63.5 802.5 65.0 Q 805.0 66.4 807.5 68.0 Q 810.0 69.6 812.5 71.2 Q 815.0 72.8 817.5 74.5 Q 820.0 76.3 822.5 78.0 Q 825.0 79.8 827.5 81.6 Q 830.0 83.4 832.5 85.3 Q 835.0 87.1 837.5 89.0 Q 840.0 90.8 842.5 92.7 Q 845.0 94.6 847.5 96.5 Q 850.0 98.4 852.5 100.2 Q 855.0 102.1 857.5 103.9 Q 860.0 105.8 862.5 107.6 Q 865.0 109.4 867.5 111.1 Q 870.0 112.9 872.5 114.6 Q 875.0 116.2 877.5 117.9 Q 880.0 119.5 882.5 121.0 Q 885.0 122.5 887.5 123.9 Q 890.0 125.3 892.5 126.6 Q 895.0 127.9 897.5 129.0 L 900.0 130.2"/>
  </path>
  <path class="wave2" d="M 0.0 165.2 Q 5.0 162.9 7.5 161.6 Q 10.0 160.3 12.5 158.9 Q 15.0 157.5 17.5 156.0 Q 20.0 154.5 22.5 152.9 Q 25.0 151.2 27.5 149.6 Q 30.0 147.9 32.5 146.1 Q 35.0 144.4 37.5 142.6 Q 40.0 140.8 42.5 138.9 Q 45.0 137.1 47.5 135.2 Q 50.0 133.4 52.5 131.5 Q 55.0 129.6 57.5 127.7 Q 60.0 125.8 62.5 124.0 Q 65.0 122.1 67.5 120.3 Q 70.0 118.4 72.5 116.6 Q 75.0 114.8 77.5 113.0 Q 80.0 111.3 82.5 109.5 Q 85.0 107.8 87.5 106.2 Q 90.0 104.6 92.5 103.0 Q 95.0 101.4 97.5 100.0 Q 100.0 98.5 102.5 97.1 Q 105.0 95.7 107.5 94.4 Q 110.0 93.1 112.5 91.9 Q 115.0 90.7 117.5 89.6 Q 120.0 88.6 122.5 87.6 Q 125.0 86.6 127.5 85.8 Q 130.0 84.9 132.5 84.1 Q 135.0 83.4 137.5 82.8 Q 140.0 82.2 142.5 81.6 Q 145.0 81.1 147.5 80.7 Q 150.0 80.3 152.5 80.1 Q 155.0 79.8 157.5 79.6 Q 160.0 79.5 162.5 79.4 Q 165.0 79.3 167.5 79.4 Q 170.0 79.4 172.5 79.6 Q 175.0 79.7 177.5 80.0 Q 180.0 80.2 182.5 80.5 Q 185.0 80.9 187.5 81.3 Q 190.0 81.7 192.5 82.2 Q 195.0 82.7 197.5 83.2 Q 200.0 83.8 202.5 84.4 Q 205.0 85.0 207.5 85.7 Q 210.0 86.4 212.5 87.1 Q 215.0 87.8 217.5 88.6 Q 220.0 89.4 222.5 90.1 Q 225.0 90.9 227.5 91.8 Q 230.0 92.6 232.5 93.4 Q 235.0 94.2 237.5 95.1 Q 240.0 95.9 242.5 96.8 Q 245.0 97.6 247.5 98.5 Q 250.0 99.3 252.5 100.1 Q 255.0 100.9 257.5 101.7 Q 260.0 102.6 262.5 103.3 Q 265.0 104.1 267.5 104.9 Q 270.0 105.6 272.5 106.3 Q 275.0 107.0 277.5 107.7 Q 280.0 108.4 282.5 109.0 Q 285.0 109.7 287.5 110.3 Q 290.0 110.8 292.5 111.4 Q 295.0 111.9 297.5 112.4 Q 300.0 112.9 302.5 113.3 Q 305.0 113.8 307.5 114.1 Q 310.0 114.5 312.5 114.8 Q 315.0 115.2 317.5 115.4 Q 320.0 115.7 322.5 115.9 Q 325.0 116.1 327.5 116.3 Q 330.0 116.5 332.5 116.6 Q 335.0 116.7 337.5 116.8 Q 340.0 116.8 342.5 116.8 Q 345.0 116.9 347.5 116.8 Q 350.0 116.8 352.5 116.7 Q 355.0 116.7 357.5 116.6 Q 360.0 116.5 362.5 116.3 Q 365.0 116.2 367.5 116.1 Q 370.0 115.9 372.5 115.7 Q 375.0 115.5 377.5 115.3 Q 380.0 115.1 382.5 114.9 Q 385.0 114.7 387.5 114.5 Q 390.0 114.2 392.5 114.0 Q 395.0 113.8 397.5 113.5 Q 400.0 113.3 402.5 113.0 Q 405.0 112.8 407.5 112.6 Q 410.0 112.4 412.5 112.1 Q 415.0 111.9 417.5 111.7 Q 420.0 111.5 422.5 111.3 Q 425.0 111.1 427.5 111.0 Q 430.0 110.8 432.5 110.7 Q 435.0 110.5 437.5 110.4 Q 440.0 110.3 442.5 110.2 Q 445.0 110.1 447.5 110.1 Q 450.0 110.0 452.5 110.0 Q 455.0 110.1 457.5 110.1 Q 460.0 110.2 462.5 110.2 Q 465.0 110.3 467.5 110.3 Q 470.0 110.3 472.5 110.3 Q 475.0 110.3 477.5 110.3 Q 480.0 110.3 482.5 110.2 Q 485.0 110.2 487.5 110.1 Q 490.0 110.0 492.5 109.9 Q 495.0 109.8 497.5 109.7 Q 500.0 109.5 502.5 109.4 Q 505.0 109.2 507.5 109.0 Q 510.0 108.8 512.5 108.5 Q 515.0 108.3 517.5 108.0 Q 520.0 107.8 522.5 107.5 Q 525.0 107.2 527.5 106.9 Q 530.0 106.5 532.5 106.2 Q 535.0 105.8 537.5 105.5 Q 540.0 105.1 542.5 104.7 Q 545.0 104.3 547.5 103.9 Q 550.0 103.5 552.5 103.1 Q 555.0 102.7 557.5 102.3 Q 560.0 101.9 562.5 101.5 Q 565.0 101.1 567.5 100.7 Q 570.0 100.2 572.5 99.9 Q 575.0 99.5 577.5 99.1 Q 580.0 98.7 582.5 98.3 Q 585.0 98.0 587.5 97.6 Q 590.0 97.3 592.5 97.0 Q 595.0 96.7 597.5 96.4 Q 600.0 96.2 602.5 95.9 Q 605.0 95.7 607.5 95.6 Q 610.0 95.4 612.5 95.3 Q 615.0 95.1 617.5 95.1 Q 620.0 95.0 622.5 95.0 Q 625.0 95.0 627.5 95.1 Q 630.0 95.1 632.5 95.2 Q 635.0 95.4 637.5 95.6 Q 640.0 95.8 642.5 96.0 Q 645.0 96.3 647.5 96.7 Q 650.0 97.0 652.5 97.4 Q 655.0 97.9 657.5 98.3 Q 660.0 98.8 662.5 99.4 Q 665.0 100.0 667.5 100.6 Q 670.0 101.3 672.5 102.0 Q 675.0 102.7 677.5 103.5 Q 680.0 104.3 682.5 105.2 Q 685.0 106.0 687.5 106.9 Q 690.0 107.9 692.5 108.8 Q 695.0 109.8 697.5 110.9 Q 700.0 111.9 702.5 113.0 Q 705.0 114.0 707.5 115.2 Q 710.0 116.3 712.5 117.5 Q 715.0 118.6 717.5 119.8 Q 720.0 121.0 722.5 122.2 Q 725.0 123.4 727.5 124.6 Q 730.0 125.8 732.5 127.1 Q 735.0 128.3 737.5 129.5 Q 740.0 130.7 742.5 131.9 Q 745.0 133.1 747.5 134.3 Q 750.0 135.4 752.5 136.6 Q 755.0 137.7 757.5 138.8 Q 760.0 139.9 762.5 140.9 Q 765.0 142.0 767.5 142.9 Q 770.0 143.9 772.5 144.8 Q 775.0 145.7 777.5 146.5 Q 780.0 147.3 782.5 148.0 Q 785.0 148.8 787.5 149.4 Q 790.0 150.0 792.5 150.5 Q 795.0 151.0 797.5 151.4 Q 800.0 151.8 802.5 152.1 Q 805.0 152.3 807.5 152.5 Q 810.0 152.6 812.5 152.6 Q 815.0 152.6 817.5 152.5 Q 820.0 152.4 822.5 152.1 Q 825.0 151.8 827.5 151.4 Q 830.0 151.0 832.5 150.4 Q 835.0 149.8 837.5 149.1 Q 840.0 148.4 842.5 147.5 Q 845.0 146.6 847.5 145.6 Q 850.0 144.6 852.5 143.4 Q 855.0 142.2 857.5 140.9 Q 860.0 139.6 862.5 138.2 Q 865.0 136.7 867.5 135.2 Q 870.0 133.6 872.5 131.9 Q 875.0 130.2 877.5 128.4 Q 880.0 126.5 882.5 124.6 Q 885.0 122.7 887.5 120.6 Q 890.0 118.6 892.5 116.5 Q 895.0 114.4 897.5 112.2 L 900.0 110.0">
    <animate attributeName="d" dur="5s" repeatCount="indefinite"
      values="M 0.0 165.2 Q 5.0 162.9 7.5 161.6 Q 10.0 160.3 12.5 158.9 Q 15.0 157.5 17.5 156.0 Q 20.0 154.5 22.5 152.9 Q 25.0 151.2 27.5 149.6 Q 30.0 147.9 32.5 146.1 Q 35.0 144.4 37.5 142.6 Q 40.0 140.8 42.5 138.9 Q 45.0 137.1 47.5 135.2 Q 50.0 133.4 52.5 131.5 Q 55.0 129.6 57.5 127.7 Q 60.0 125.8 62.5 124.0 Q 65.0 122.1 67.5 120.3 Q 70.0 118.4 72.5 116.6 Q 75.0 114.8 77.5 113.0 Q 80.0 111.3 82.5 109.5 Q 85.0 107.8 87.5 106.2 Q 90.0 104.6 92.5 103.0 Q 95.0 101.4 97.5 100.0 Q 100.0 98.5 102.5 97.1 Q 105.0 95.7 107.5 94.4 Q 110.0 93.1 112.5 91.9 Q 115.0 90.7 117.5 89.6 Q 120.0 88.6 122.5 87.6 Q 125.0 86.6 127.5 85.8 Q 130.0 84.9 132.5 84.1 Q 135.0 83.4 137.5 82.8 Q 140.0 82.2 142.5 81.6 Q 145.0 81.1 147.5 80.7 Q 150.0 80.3 152.5 80.1 Q 155.0 79.8 157.5 79.6 Q 160.0 79.5 162.5 79.4 Q 165.0 79.3 167.5 79.4 Q 170.0 79.4 172.5 79.6 Q 175.0 79.7 177.5 80.0 Q 180.0 80.2 182.5 80.5 Q 185.0 80.9 187.5 81.3 Q 190.0 81.7 192.5 82.2 Q 195.0 82.7 197.5 83.2 Q 200.0 83.8 202.5 84.4 Q 205.0 85.0 207.5 85.7 Q 210.0 86.4 212.5 87.1 Q 215.0 87.8 217.5 88.6 Q 220.0 89.4 222.5 90.1 Q 225.0 90.9 227.5 91.8 Q 230.0 92.6 232.5 93.4 Q 235.0 94.2 237.5 95.1 Q 240.0 95.9 242.5 96.8 Q 245.0 97.6 247.5 98.5 Q 250.0 99.3 252.5 100.1 Q 255.0 100.9 257.5 101.7 Q 260.0 102.6 262.5 103.3 Q 265.0 104.1 267.5 104.9 Q 270.0 105.6 272.5 106.3 Q 275.0 107.0 277.5 107.7 Q 280.0 108.4 282.5 109.0 Q 285.0 109.7 287.5 110.3 Q 290.0 110.8 292.5 111.4 Q 295.0 111.9 297.5 112.4 Q 300.0 112.9 302.5 113.3 Q 305.0 113.8 307.5 114.1 Q 310.0 114.5 312.5 114.8 Q 315.0 115.2 317.5 115.4 Q 320.0 115.7 322.5 115.9 Q 325.0 116.1 327.5 116.3 Q 330.0 116.5 332.5 116.6 Q 335.0 116.7 337.5 116.8 Q 340.0 116.8 342.5 116.8 Q 345.0 116.9 347.5 116.8 Q 350.0 116.8 352.5 116.7 Q 355.0 116.7 357.5 116.6 Q 360.0 116.5 362.5 116.3 Q 365.0 116.2 367.5 116.1 Q 370.0 115.9 372.5 115.7 Q 375.0 115.5 377.5 115.3 Q 380.0 115.1 382.5 114.9 Q 385.0 114.7 387.5 114.5 Q 390.0 114.2 392.5 114.0 Q 395.0 113.8 397.5 113.5 Q 400.0 113.3 402.5 113.0 Q 405.0 112.8 407.5 112.6 Q 410.0 112.4 412.5 112.1 Q 415.0 111.9 417.5 111.7 Q 420.0 111.5 422.5 111.3 Q 425.0 111.1 427.5 111.0 Q 430.0 110.8 432.5 110.7 Q 435.0 110.5 437.5 110.4 Q 440.0 110.3 442.5 110.2 Q 445.0 110.1 447.5 110.1 Q 450.0 110.0 452.5 110.0 Q 455.0 110.1 457.5 110.1 Q 460.0 110.2 462.5 110.2 Q 465.0 110.3 467.5 110.3 Q 470.0 110.3 472.5 110.3 Q 475.0 110.3 477.5 110.3 Q 480.0 110.3 482.5 110.2 Q 485.0 110.2 487.5 110.1 Q 490.0 110.0 492.5 109.9 Q 495.0 109.8 497.5 109.7 Q 500.0 109.5 502.5 109.4 Q 505.0 109.2 507.5 109.0 Q 510.0 108.8 512.5 108.5 Q 515.0 108.3 517.5 108.0 Q 520.0 107.8 522.5 107.5 Q 525.0 107.2 527.5 106.9 Q 530.0 106.5 532.5 106.2 Q 535.0 105.8 537.5 105.5 Q 540.0 105.1 542.5 104.7 Q 545.0 104.3 547.5 103.9 Q 550.0 103.5 552.5 103.1 Q 555.0 102.7 557.5 102.3 Q 560.0 101.9 562.5 101.5 Q 565.0 101.1 567.5 100.7 Q 570.0 100.2 572.5 99.9 Q 575.0 99.5 577.5 99.1 Q 580.0 98.7 582.5 98.3 Q 585.0 98.0 587.5 97.6 Q 590.0 97.3 592.5 97.0 Q 595.0 96.7 597.5 96.4 Q 600.0 96.2 602.5 95.9 Q 605.0 95.7 607.5 95.6 Q 610.0 95.4 612.5 95.3 Q 615.0 95.1 617.5 95.1 Q 620.0 95.0 622.5 95.0 Q 625.0 95.0 627.5 95.1 Q 630.0 95.1 632.5 95.2 Q 635.0 95.4 637.5 95.6 Q 640.0 95.8 642.5 96.0 Q 645.0 96.3 647.5 96.7 Q 650.0 97.0 652.5 97.4 Q 655.0 97.9 657.5 98.3 Q 660.0 98.8 662.5 99.4 Q 665.0 100.0 667.5 100.6 Q 670.0 101.3 672.5 102.0 Q 675.0 102.7 677.5 103.5 Q 680.0 104.3 682.5 105.2 Q 685.0 106.0 687.5 106.9 Q 690.0 107.9 692.5 108.8 Q 695.0 109.8 697.5 110.9 Q 700.0 111.9 702.5 113.0 Q 705.0 114.0 707.5 115.2 Q 710.0 116.3 712.5 117.5 Q 715.0 118.6 717.5 119.8 Q 720.0 121.0 722.5 122.2 Q 725.0 123.4 727.5 124.6 Q 730.0 125.8 732.5 127.1 Q 735.0 128.3 737.5 129.5 Q 740.0 130.7 742.5 131.9 Q 745.0 133.1 747.5 134.3 Q 750.0 135.4 752.5 136.6 Q 755.0 137.7 757.5 138.8 Q 760.0 139.9 762.5 140.9 Q 765.0 142.0 767.5 142.9 Q 770.0 143.9 772.5 144.8 Q 775.0 145.7 777.5 146.5 Q 780.0 147.3 782.5 148.0 Q 785.0 148.8 787.5 149.4 Q 790.0 150.0 792.5 150.5 Q 795.0 151.0 797.5 151.4 Q 800.0 151.8 802.5 152.1 Q 805.0 152.3 807.5 152.5 Q 810.0 152.6 812.5 152.6 Q 815.0 152.6 817.5 152.5 Q 820.0 152.4 822.5 152.1 Q 825.0 151.8 827.5 151.4 Q 830.0 151.0 832.5 150.4 Q 835.0 149.8 837.5 149.1 Q 840.0 148.4 842.5 147.5 Q 845.0 146.6 847.5 145.6 Q 850.0 144.6 852.5 143.4 Q 855.0 142.2 857.5 140.9 Q 860.0 139.6 862.5 138.2 Q 865.0 136.7 867.5 135.2 Q 870.0 133.6 872.5 131.9 Q 875.0 130.2 877.5 128.4 Q 880.0 126.5 882.5 124.6 Q 885.0 122.7 887.5 120.6 Q 890.0 118.6 892.5 116.5 Q 895.0 114.4 897.5 112.2 L 900.0 110.0;M 0.0 54.8 Q 5.0 57.1 7.5 58.4 Q 10.0 59.7 12.5 61.1 Q 15.0 62.5 17.5 64.0 Q 20.0 65.5 22.5 67.1 Q 25.0 68.8 27.5 70.4 Q 30.0 72.1 32.5 73.9 Q 35.0 75.6 37.5 77.4 Q 40.0 79.2 42.5 81.1 Q 45.0 82.9 47.5 84.8 Q 50.0 86.6 52.5 88.5 Q 55.0 90.4 57.5 92.3 Q 60.0 94.2 62.5 96.0 Q 65.0 97.9 67.5 99.7 Q 70.0 101.6 72.5 103.4 Q 75.0 105.2 77.5 107.0 Q 80.0 108.7 82.5 110.5 Q 85.0 112.2 87.5 113.8 Q 90.0 115.4 92.5 117.0 Q 95.0 118.6 97.5 120.0 Q 100.0 121.5 102.5 122.9 Q 105.0 124.3 107.5 125.6 Q 110.0 126.9 112.5 128.1 Q 115.0 129.3 117.5 130.4 Q 120.0 131.4 122.5 132.4 Q 125.0 133.4 127.5 134.2 Q 130.0 135.1 132.5 135.9 Q 135.0 136.6 137.5 137.2 Q 140.0 137.8 142.5 138.4 Q 145.0 138.9 147.5 139.3 Q 150.0 139.7 152.5 139.9 Q 155.0 140.2 157.5 140.4 Q 160.0 140.5 162.5 140.6 Q 165.0 140.7 167.5 140.6 Q 170.0 140.6 172.5 140.4 Q 175.0 140.3 177.5 140.0 Q 180.0 139.8 182.5 139.5 Q 185.0 139.1 187.5 138.7 Q 190.0 138.3 192.5 137.8 Q 195.0 137.3 197.5 136.8 Q 200.0 136.2 202.5 135.6 Q 205.0 135.0 207.5 134.3 Q 210.0 133.6 212.5 132.9 Q 215.0 132.2 217.5 131.4 Q 220.0 130.6 222.5 129.9 Q 225.0 129.1 227.5 128.2 Q 230.0 127.4 232.5 126.6 Q 235.0 125.8 237.5 124.9 Q 240.0 124.1 242.5 123.2 Q 245.0 122.4 247.5 121.5 Q 250.0 120.7 252.5 119.9 Q 255.0 119.1 257.5 118.3 Q 260.0 117.4 262.5 116.7 Q 265.0 115.9 267.5 115.1 Q 270.0 114.4 272.5 113.7 Q 275.0 113.0 277.5 112.3 Q 280.0 111.6 282.5 111.0 Q 285.0 110.3 287.5 109.7 Q 290.0 109.2 292.5 108.6 Q 295.0 108.1 297.5 107.6 Q 300.0 107.1 302.5 106.7 Q 305.0 106.2 307.5 105.9 Q 310.0 105.5 312.5 105.2 Q 315.0 104.8 317.5 104.6 Q 320.0 104.3 322.5 104.1 Q 325.0 103.9 327.5 103.7 Q 330.0 103.5 332.5 103.4 Q 335.0 103.3 337.5 103.2 Q 340.0 103.2 342.5 103.2 Q 345.0 103.1 347.5 103.2 Q 350.0 103.2 352.5 103.3 Q 355.0 103.3 357.5 103.4 Q 360.0 103.5 362.5 103.7 Q 365.0 103.8 367.5 103.9 Q 370.0 104.1 372.5 104.3 Q 375.0 104.5 377.5 104.7 Q 380.0 104.9 382.5 105.1 Q 385.0 105.3 387.5 105.5 Q 390.0 105.8 392.5 106.0 Q 395.0 106.2 397.5 106.5 Q 400.0 106.7 402.5 107.0 Q 405.0 107.2 407.5 107.4 Q 410.0 107.6 412.5 107.9 Q 415.0 108.1 417.5 108.3 Q 420.0 108.5 422.5 108.7 Q 425.0 108.9 427.5 109.0 Q 430.0 109.2 432.5 109.3 Q 435.0 109.5 437.5 109.6 Q 440.0 109.7 442.5 109.8 Q 445.0 109.9 447.5 109.9 Q 450.0 110.0 452.5 110.0 Q 455.0 109.9 457.5 109.9 Q 460.0 109.8 462.5 109.8 Q 465.0 109.7 467.5 109.7 Q 470.0 109.7 472.5 109.7 Q 475.0 109.7 477.5 109.7 Q 480.0 109.7 482.5 109.8 Q 485.0 109.8 487.5 109.9 Q 490.0 110.0 492.5 110.1 Q 495.0 110.2 497.5 110.3 Q 500.0 110.5 502.5 110.6 Q 505.0 110.8 507.5 111.0 Q 510.0 111.2 512.5 111.5 Q 515.0 111.7 517.5 112.0 Q 520.0 112.2 522.5 112.5 Q 525.0 112.8 527.5 113.1 Q 530.0 113.5 532.5 113.8 Q 535.0 114.2 537.5 114.5 Q 540.0 114.9 542.5 115.3 Q 545.0 115.7 547.5 116.1 Q 550.0 116.5 552.5 116.9 Q 555.0 117.3 557.5 117.7 Q 560.0 118.1 562.5 118.5 Q 565.0 118.9 567.5 119.3 Q 570.0 119.8 572.5 120.1 Q 575.0 120.5 577.5 120.9 Q 580.0 121.3 582.5 121.7 Q 585.0 122.0 587.5 122.4 Q 590.0 122.7 592.5 123.0 Q 595.0 123.3 597.5 123.6 Q 600.0 123.8 602.5 124.1 Q 605.0 124.3 607.5 124.4 Q 610.0 124.6 612.5 124.7 Q 615.0 124.9 617.5 124.9 Q 620.0 125.0 622.5 125.0 Q 625.0 125.0 627.5 124.9 Q 630.0 124.9 632.5 124.8 Q 635.0 124.6 637.5 124.4 Q 640.0 124.2 642.5 124.0 Q 645.0 123.7 647.5 123.3 Q 650.0 123.0 652.5 122.6 Q 655.0 122.1 657.5 121.7 Q 660.0 121.2 662.5 120.6 Q 665.0 120.0 667.5 119.4 Q 670.0 118.7 672.5 118.0 Q 675.0 117.3 677.5 116.5 Q 680.0 115.7 682.5 114.8 Q 685.0 114.0 687.5 113.1 Q 690.0 112.1 692.5 111.2 Q 695.0 110.2 697.5 109.1 Q 700.0 108.1 702.5 107.0 Q 705.0 106.0 707.5 104.8 Q 710.0 103.7 712.5 102.5 Q 715.0 101.4 717.5 100.2 Q 720.0 99.0 722.5 97.8 Q 725.0 96.6 727.5 95.4 Q 730.0 94.2 732.5 92.9 Q 735.0 91.7 737.5 90.5 Q 740.0 89.3 742.5 88.1 Q 745.0 86.9 747.5 85.7 Q 750.0 84.6 752.5 83.4 Q 755.0 82.3 757.5 81.2 Q 760.0 80.1 762.5 79.1 Q 765.0 78.0 767.5 77.1 Q 770.0 76.1 772.5 75.2 Q 775.0 74.3 777.5 73.5 Q 780.0 72.7 782.5 72.0 Q 785.0 71.2 787.5 70.6 Q 790.0 70.0 792.5 69.5 Q 795.0 69.0 797.5 68.6 Q 800.0 68.2 802.5 67.9 Q 805.0 67.7 807.5 67.5 Q 810.0 67.4 812.5 67.4 Q 815.0 67.4 817.5 67.5 Q 820.0 67.6 822.5 67.9 Q 825.0 68.2 827.5 68.6 Q 830.0 69.0 832.5 69.6 Q 835.0 70.2 837.5 70.9 Q 840.0 71.6 842.5 72.5 Q 845.0 73.4 847.5 74.4 Q 850.0 75.4 852.5 76.6 Q 855.0 77.8 857.5 79.1 Q 860.0 80.4 862.5 81.8 Q 865.0 83.3 867.5 84.8 Q 870.0 86.4 872.5 88.1 Q 875.0 89.8 877.5 91.6 Q 880.0 93.5 882.5 95.4 Q 885.0 97.3 887.5 99.4 Q 890.0 101.4 892.5 103.5 Q 895.0 105.6 897.5 107.8 L 900.0 110.0;M 0.0 165.2 Q 5.0 162.9 7.5 161.6 Q 10.0 160.3 12.5 158.9 Q 15.0 157.5 17.5 156.0 Q 20.0 154.5 22.5 152.9 Q 25.0 151.2 27.5 149.6 Q 30.0 147.9 32.5 146.1 Q 35.0 144.4 37.5 142.6 Q 40.0 140.8 42.5 138.9 Q 45.0 137.1 47.5 135.2 Q 50.0 133.4 52.5 131.5 Q 55.0 129.6 57.5 127.7 Q 60.0 125.8 62.5 124.0 Q 65.0 122.1 67.5 120.3 Q 70.0 118.4 72.5 116.6 Q 75.0 114.8 77.5 113.0 Q 80.0 111.3 82.5 109.5 Q 85.0 107.8 87.5 106.2 Q 90.0 104.6 92.5 103.0 Q 95.0 101.4 97.5 100.0 Q 100.0 98.5 102.5 97.1 Q 105.0 95.7 107.5 94.4 Q 110.0 93.1 112.5 91.9 Q 115.0 90.7 117.5 89.6 Q 120.0 88.6 122.5 87.6 Q 125.0 86.6 127.5 85.8 Q 130.0 84.9 132.5 84.1 Q 135.0 83.4 137.5 82.8 Q 140.0 82.2 142.5 81.6 Q 145.0 81.1 147.5 80.7 Q 150.0 80.3 152.5 80.1 Q 155.0 79.8 157.5 79.6 Q 160.0 79.5 162.5 79.4 Q 165.0 79.3 167.5 79.4 Q 170.0 79.4 172.5 79.6 Q 175.0 79.7 177.5 80.0 Q 180.0 80.2 182.5 80.5 Q 185.0 80.9 187.5 81.3 Q 190.0 81.7 192.5 82.2 Q 195.0 82.7 197.5 83.2 Q 200.0 83.8 202.5 84.4 Q 205.0 85.0 207.5 85.7 Q 210.0 86.4 212.5 87.1 Q 215.0 87.8 217.5 88.6 Q 220.0 89.4 222.5 90.1 Q 225.0 90.9 227.5 91.8 Q 230.0 92.6 232.5 93.4 Q 235.0 94.2 237.5 95.1 Q 240.0 95.9 242.5 96.8 Q 245.0 97.6 247.5 98.5 Q 250.0 99.3 252.5 100.1 Q 255.0 100.9 257.5 101.7 Q 260.0 102.6 262.5 103.3 Q 265.0 104.1 267.5 104.9 Q 270.0 105.6 272.5 106.3 Q 275.0 107.0 277.5 107.7 Q 280.0 108.4 282.5 109.0 Q 285.0 109.7 287.5 110.3 Q 290.0 110.8 292.5 111.4 Q 295.0 111.9 297.5 112.4 Q 300.0 112.9 302.5 113.3 Q 305.0 113.8 307.5 114.1 Q 310.0 114.5 312.5 114.8 Q 315.0 115.2 317.5 115.4 Q 320.0 115.7 322.5 115.9 Q 325.0 116.1 327.5 116.3 Q 330.0 116.5 332.5 116.6 Q 335.0 116.7 337.5 116.8 Q 340.0 116.8 342.5 116.8 Q 345.0 116.9 347.5 116.8 Q 350.0 116.8 352.5 116.7 Q 355.0 116.7 357.5 116.6 Q 360.0 116.5 362.5 116.3 Q 365.0 116.2 367.5 116.1 Q 370.0 115.9 372.5 115.7 Q 375.0 115.5 377.5 115.3 Q 380.0 115.1 382.5 114.9 Q 385.0 114.7 387.5 114.5 Q 390.0 114.2 392.5 114.0 Q 395.0 113.8 397.5 113.5 Q 400.0 113.3 402.5 113.0 Q 405.0 112.8 407.5 112.6 Q 410.0 112.4 412.5 112.1 Q 415.0 111.9 417.5 111.7 Q 420.0 111.5 422.5 111.3 Q 425.0 111.1 427.5 111.0 Q 430.0 110.8 432.5 110.7 Q 435.0 110.5 437.5 110.4 Q 440.0 110.3 442.5 110.2 Q 445.0 110.1 447.5 110.1 Q 450.0 110.0 452.5 110.0 Q 455.0 110.1 457.5 110.1 Q 460.0 110.2 462.5 110.2 Q 465.0 110.3 467.5 110.3 Q 470.0 110.3 472.5 110.3 Q 475.0 110.3 477.5 110.3 Q 480.0 110.3 482.5 110.2 Q 485.0 110.2 487.5 110.1 Q 490.0 110.0 492.5 109.9 Q 495.0 109.8 497.5 109.7 Q 500.0 109.5 502.5 109.4 Q 505.0 109.2 507.5 109.0 Q 510.0 108.8 512.5 108.5 Q 515.0 108.3 517.5 108.0 Q 520.0 107.8 522.5 107.5 Q 525.0 107.2 527.5 106.9 Q 530.0 106.5 532.5 106.2 Q 535.0 105.8 537.5 105.5 Q 540.0 105.1 542.5 104.7 Q 545.0 104.3 547.5 103.9 Q 550.0 103.5 552.5 103.1 Q 555.0 102.7 557.5 102.3 Q 560.0 101.9 562.5 101.5 Q 565.0 101.1 567.5 100.7 Q 570.0 100.2 572.5 99.9 Q 575.0 99.5 577.5 99.1 Q 580.0 98.7 582.5 98.3 Q 585.0 98.0 587.5 97.6 Q 590.0 97.3 592.5 97.0 Q 595.0 96.7 597.5 96.4 Q 600.0 96.2 602.5 95.9 Q 605.0 95.7 607.5 95.6 Q 610.0 95.4 612.5 95.3 Q 615.0 95.1 617.5 95.1 Q 620.0 95.0 622.5 95.0 Q 625.0 95.0 627.5 95.1 Q 630.0 95.1 632.5 95.2 Q 635.0 95.4 637.5 95.6 Q 640.0 95.8 642.5 96.0 Q 645.0 96.3 647.5 96.7 Q 650.0 97.0 652.5 97.4 Q 655.0 97.9 657.5 98.3 Q 660.0 98.8 662.5 99.4 Q 665.0 100.0 667.5 100.6 Q 670.0 101.3 672.5 102.0 Q 675.0 102.7 677.5 103.5 Q 680.0 104.3 682.5 105.2 Q 685.0 106.0 687.5 106.9 Q 690.0 107.9 692.5 108.8 Q 695.0 109.8 697.5 110.9 Q 700.0 111.9 702.5 113.0 Q 705.0 114.0 707.5 115.2 Q 710.0 116.3 712.5 117.5 Q 715.0 118.6 717.5 119.8 Q 720.0 121.0 722.5 122.2 Q 725.0 123.4 727.5 124.6 Q 730.0 125.8 732.5 127.1 Q 735.0 128.3 737.5 129.5 Q 740.0 130.7 742.5 131.9 Q 745.0 133.1 747.5 134.3 Q 750.0 135.4 752.5 136.6 Q 755.0 137.7 757.5 138.8 Q 760.0 139.9 762.5 140.9 Q 765.0 142.0 767.5 142.9 Q 770.0 143.9 772.5 144.8 Q 775.0 145.7 777.5 146.5 Q 780.0 147.3 782.5 148.0 Q 785.0 148.8 787.5 149.4 Q 790.0 150.0 792.5 150.5 Q 795.0 151.0 797.5 151.4 Q 800.0 151.8 802.5 152.1 Q 805.0 152.3 807.5 152.5 Q 810.0 152.6 812.5 152.6 Q 815.0 152.6 817.5 152.5 Q 820.0 152.4 822.5 152.1 Q 825.0 151.8 827.5 151.4 Q 830.0 151.0 832.5 150.4 Q 835.0 149.8 837.5 149.1 Q 840.0 148.4 842.5 147.5 Q 845.0 146.6 847.5 145.6 Q 850.0 144.6 852.5 143.4 Q 855.0 142.2 857.5 140.9 Q 860.0 139.6 862.5 138.2 Q 865.0 136.7 867.5 135.2 Q 870.0 133.6 872.5 131.9 Q 875.0 130.2 877.5 128.4 Q 880.0 126.5 882.5 124.6 Q 885.0 122.7 887.5 120.6 Q 890.0 118.6 892.5 116.5 Q 895.0 114.4 897.5 112.2 L 900.0 110.0"/>
  </path>
  <text class="title" x="450" y="90">sOm41-o</text>
</svg>